<mxfile host="app.diagrams.net" modified="2022-11-23T22:06:58.530Z" agent="5.0 (Windows NT 10.0; Win64; x64) AppleWebKit/537.36 (KHTML, like Gecko) Chrome/107.0.0.0 Safari/537.36" etag="Q2NmZW5MeeFYtqxBeYgu" version="20.6.0" type="github">
  <diagram name="Page-1" id="efa7a0a1-bf9b-a30e-e6df-94a7791c09e9">
    <mxGraphModel dx="1656" dy="410" grid="1" gridSize="10" guides="1" tooltips="1" connect="1" arrows="1" fold="1" page="1" pageScale="1" pageWidth="826" pageHeight="1169" background="#95B3D7" math="0" shadow="0">
      <root>
        <mxCell id="0" />
        <mxCell id="1" parent="0" />
        <mxCell id="i65pdLxmEgdxma1QW-8l-159" value="&lt;font style=&quot;font-size: 29px;&quot; color=&quot;#1f497d&quot;&gt;Job 4: Shutdown&lt;/font&gt;" style="rounded=1;whiteSpace=wrap;html=1;dashed=1;fontSize=24;fillColor=#EEECE1;dashPattern=1 1;verticalAlign=top;" vertex="1" parent="1">
          <mxGeometry x="-80" y="1130" width="440" height="210" as="geometry" />
        </mxCell>
        <mxCell id="i65pdLxmEgdxma1QW-8l-160" value="&lt;font style=&quot;font-size: 29px;&quot; color=&quot;#1f497d&quot;&gt;Job 3: Test&lt;/font&gt;" style="rounded=1;whiteSpace=wrap;html=1;dashed=1;fontSize=24;fillColor=#EEECE1;dashPattern=1 1;verticalAlign=top;" vertex="1" parent="1">
          <mxGeometry x="-80" y="640" width="440" height="460" as="geometry" />
        </mxCell>
        <mxCell id="i65pdLxmEgdxma1QW-8l-161" value="&lt;font style=&quot;font-size: 29px;&quot; color=&quot;#1f497d&quot;&gt;Job 2: Build&lt;/font&gt;" style="rounded=1;whiteSpace=wrap;html=1;dashed=1;fontSize=24;fillColor=#EEECE1;dashPattern=1 1;verticalAlign=top;" vertex="1" parent="1">
          <mxGeometry x="-85" y="240" width="440" height="370" as="geometry" />
        </mxCell>
        <mxCell id="i65pdLxmEgdxma1QW-8l-157" value="&lt;font style=&quot;font-size: 29px;&quot; color=&quot;#1f497d&quot;&gt;Job 1: Checkout&lt;/font&gt;" style="rounded=1;whiteSpace=wrap;html=1;dashed=1;fontSize=24;fillColor=#EEECE1;dashPattern=1 1;verticalAlign=top;" vertex="1" parent="1">
          <mxGeometry x="-80" y="40" width="440" height="170" as="geometry" />
        </mxCell>
        <mxCell id="i65pdLxmEgdxma1QW-8l-114" value="&lt;font color=&quot;#eeece1&quot; style=&quot;font-size: 24px;&quot;&gt;Step 1:&lt;/font&gt;" style="rounded=1;whiteSpace=wrap;html=1;align=left;verticalAlign=top;fillColor=#1F497D;" vertex="1" parent="1">
          <mxGeometry x="-50" y="100" width="380" height="80" as="geometry" />
        </mxCell>
        <mxCell id="i65pdLxmEgdxma1QW-8l-115" value="&lt;font color=&quot;#eeece1&quot; style=&quot;font-size: 24px;&quot;&gt;Step 1:&lt;/font&gt;" style="rounded=1;whiteSpace=wrap;html=1;align=left;verticalAlign=top;fillColor=#1F497D;" vertex="1" parent="1">
          <mxGeometry x="-55" y="325" width="380" height="80" as="geometry" />
        </mxCell>
        <mxCell id="i65pdLxmEgdxma1QW-8l-117" value="&lt;font style=&quot;font-size: 24px;&quot; color=&quot;#eeece1&quot;&gt;Step 2:&lt;/font&gt;" style="rounded=1;whiteSpace=wrap;html=1;verticalAlign=top;align=left;fontSize=15;fillColor=#1F497D;" vertex="1" parent="1">
          <mxGeometry x="-55" y="415" width="380" height="80" as="geometry" />
        </mxCell>
        <mxCell id="i65pdLxmEgdxma1QW-8l-119" value="&lt;font style=&quot;font-size: 24px;&quot; color=&quot;#eeece1&quot;&gt;Step 3:&lt;/font&gt;" style="rounded=1;whiteSpace=wrap;html=1;fontSize=15;verticalAlign=top;align=left;fillColor=#1F497D;" vertex="1" parent="1">
          <mxGeometry x="-55" y="505" width="380" height="80" as="geometry" />
        </mxCell>
        <mxCell id="i65pdLxmEgdxma1QW-8l-121" value="&lt;font style=&quot;font-size: 24px;&quot; color=&quot;#eeece1&quot;&gt;Step 1:&lt;/font&gt;" style="rounded=1;whiteSpace=wrap;html=1;verticalAlign=top;align=left;fontSize=15;fillColor=#1F497D;" vertex="1" parent="1">
          <mxGeometry x="-50" y="720" width="380" height="80" as="geometry" />
        </mxCell>
        <mxCell id="i65pdLxmEgdxma1QW-8l-123" value="&lt;font style=&quot;font-size: 24px;&quot; color=&quot;#eeece1&quot;&gt;Step 2:&lt;/font&gt;" style="rounded=1;whiteSpace=wrap;html=1;verticalAlign=top;align=left;fontSize=15;fillColor=#1F497D;" vertex="1" parent="1">
          <mxGeometry x="-50" y="810" width="380" height="80" as="geometry" />
        </mxCell>
        <mxCell id="i65pdLxmEgdxma1QW-8l-125" value="&lt;font style=&quot;font-size: 24px;&quot; color=&quot;#eeece1&quot;&gt;Step 3:&lt;/font&gt;" style="rounded=1;whiteSpace=wrap;html=1;fontSize=15;verticalAlign=top;align=left;fillColor=#1F497D;" vertex="1" parent="1">
          <mxGeometry x="-50" y="900" width="380" height="80" as="geometry" />
        </mxCell>
        <mxCell id="i65pdLxmEgdxma1QW-8l-127" value="&lt;font style=&quot;font-size: 24px;&quot; color=&quot;#eeece1&quot;&gt;Step 1:&lt;/font&gt;" style="rounded=1;whiteSpace=wrap;html=1;fontSize=15;align=left;verticalAlign=top;fillColor=#1F497D;" vertex="1" parent="1">
          <mxGeometry x="-50" y="1230" width="380" height="80" as="geometry" />
        </mxCell>
        <mxCell id="i65pdLxmEgdxma1QW-8l-131" value="&lt;font style=&quot;font-size: 24px;&quot; color=&quot;#eeece1&quot;&gt;Step 4+:&lt;/font&gt;" style="rounded=1;whiteSpace=wrap;html=1;dashed=1;fontSize=15;align=left;verticalAlign=top;fillColor=#1F497D;" vertex="1" parent="1">
          <mxGeometry x="-50" y="990" width="380" height="80" as="geometry" />
        </mxCell>
        <mxCell id="i65pdLxmEgdxma1QW-8l-134" style="edgeStyle=none;rounded=0;orthogonalLoop=1;jettySize=auto;html=1;exitX=0.75;exitY=1;exitDx=0;exitDy=0;dashed=1;strokeWidth=1;endArrow=none;endFill=0;" edge="1" parent="1" source="i65pdLxmEgdxma1QW-8l-127" target="i65pdLxmEgdxma1QW-8l-127">
          <mxGeometry relative="1" as="geometry" />
        </mxCell>
        <mxCell id="i65pdLxmEgdxma1QW-8l-139" value="&lt;font style=&quot;font-size: 24px;&quot; color=&quot;#eeece1&quot;&gt;&lt;span style=&quot;font-family: Helvetica; font-style: normal; font-variant-ligatures: normal; font-variant-caps: normal; font-weight: 400; letter-spacing: normal; orphans: 2; text-indent: 0px; text-transform: none; widows: 2; word-spacing: 0px; -webkit-text-stroke-width: 0px; text-decoration-thickness: initial; text-decoration-style: initial; text-decoration-color: initial; float: none; display: inline !important;&quot;&gt;start cluster&amp;nbsp;&lt;/span&gt;&lt;span style=&quot;font-family: Helvetica; font-style: normal; font-variant-ligatures: normal; font-variant-caps: normal; font-weight: 400; letter-spacing: normal; orphans: 2; text-indent: 0px; text-transform: none; widows: 2; word-spacing: 0px; -webkit-text-stroke-width: 0px; text-decoration-thickness: initial; text-decoration-style: initial; text-decoration-color: initial; float: none; display: inline !important;&quot;&gt;and&amp;nbsp;&lt;/span&gt;&lt;span style=&quot;font-family: Helvetica; font-style: normal; font-variant-ligatures: normal; font-variant-caps: normal; font-weight: 400; letter-spacing: normal; orphans: 2; text-indent: 0px; text-transform: none; widows: 2; word-spacing: 0px; -webkit-text-stroke-width: 0px; text-decoration-thickness: initial; text-decoration-style: initial; text-decoration-color: initial; float: none; display: inline !important;&quot;&gt;checkout code&lt;/span&gt;&lt;/font&gt;" style="text;whiteSpace=wrap;html=1;fontSize=21;align=center;" vertex="1" parent="1">
          <mxGeometry x="-40" y="130" width="360" height="40" as="geometry" />
        </mxCell>
        <mxCell id="i65pdLxmEgdxma1QW-8l-142" value="&lt;font style=&quot;font-size: 24px;&quot; color=&quot;#eeece1&quot;&gt;shallow-water configuration&lt;/font&gt;" style="text;whiteSpace=wrap;html=1;fontSize=21;align=center;" vertex="1" parent="1">
          <mxGeometry x="-40" y="360" width="350" height="40" as="geometry" />
        </mxCell>
        <mxCell id="i65pdLxmEgdxma1QW-8l-143" value="&lt;font style=&quot;font-size: 24px;&quot; color=&quot;#eeece1&quot;&gt;non-hydrostatic configuration&lt;/font&gt;" style="text;whiteSpace=wrap;html=1;fontSize=21;align=center;" vertex="1" parent="1">
          <mxGeometry x="-50" y="540" width="370" height="40" as="geometry" />
        </mxCell>
        <mxCell id="i65pdLxmEgdxma1QW-8l-144" value="&lt;font style=&quot;font-size: 24px;&quot; color=&quot;#eeece1&quot;&gt;hydrostatic configuration&lt;/font&gt;" style="text;whiteSpace=wrap;html=1;fontSize=21;align=center;" vertex="1" parent="1">
          <mxGeometry x="-35" y="450" width="340" height="40" as="geometry" />
        </mxCell>
        <mxCell id="i65pdLxmEgdxma1QW-8l-147" value="&lt;font style=&quot;font-size: 24px;&quot; color=&quot;#eeece1&quot;&gt;test configuration 1&lt;/font&gt;" style="text;whiteSpace=wrap;html=1;fontSize=21;align=center;" vertex="1" parent="1">
          <mxGeometry x="-35" y="750" width="350" height="40" as="geometry" />
        </mxCell>
        <mxCell id="i65pdLxmEgdxma1QW-8l-148" value="&lt;font style=&quot;font-size: 24px;&quot; color=&quot;#eeece1&quot;&gt;test configuration 3&lt;/font&gt;" style="text;whiteSpace=wrap;html=1;fontSize=21;align=center;" vertex="1" parent="1">
          <mxGeometry x="-25" y="930" width="330" height="40" as="geometry" />
        </mxCell>
        <mxCell id="i65pdLxmEgdxma1QW-8l-149" value="&lt;font style=&quot;font-size: 24px;&quot; color=&quot;#eeece1&quot;&gt;test configuration 2&lt;/font&gt;" style="text;whiteSpace=wrap;html=1;fontSize=21;align=center;" vertex="1" parent="1">
          <mxGeometry x="-20" y="840" width="320" height="40" as="geometry" />
        </mxCell>
        <mxCell id="i65pdLxmEgdxma1QW-8l-150" value="&lt;span style=&quot;font-size: 24px;&quot;&gt;&lt;font style=&quot;font-size: 24px;&quot; color=&quot;#eeece1&quot;&gt;test configuration 4 and beyond&lt;/font&gt;&lt;br&gt;&lt;/span&gt;" style="text;whiteSpace=wrap;html=1;fontSize=21;align=center;labelBackgroundColor=none;" vertex="1" parent="1">
          <mxGeometry x="-40" y="1020" width="360" height="80" as="geometry" />
        </mxCell>
        <mxCell id="i65pdLxmEgdxma1QW-8l-151" value="&lt;font style=&quot;font-size: 24px;&quot; color=&quot;#eeece1&quot;&gt;Shutdown Cluster&lt;/font&gt;" style="text;whiteSpace=wrap;html=1;fontSize=21;align=center;" vertex="1" parent="1">
          <mxGeometry x="-40" y="1245" width="350" height="50" as="geometry" />
        </mxCell>
        <mxCell id="i65pdLxmEgdxma1QW-8l-152" value="&lt;font style=&quot;font-size: 20px;&quot; color=&quot;#1f497d&quot;&gt;Needs: Checkout&lt;/font&gt;" style="text;html=1;resizable=0;autosize=1;align=center;verticalAlign=middle;points=[];fillColor=none;strokeColor=none;rounded=0;dashed=1;fontSize=15;" vertex="1" parent="1">
          <mxGeometry x="45" y="285" width="180" height="40" as="geometry" />
        </mxCell>
        <mxCell id="i65pdLxmEgdxma1QW-8l-153" value="&lt;font style=&quot;font-size: 21px;&quot; color=&quot;#1f497d&quot;&gt;Needs: Checkout, Build, Test&lt;/font&gt;" style="text;html=1;resizable=0;autosize=1;align=center;verticalAlign=middle;points=[];fillColor=none;strokeColor=none;rounded=0;dashed=1;fontSize=15;" vertex="1" parent="1">
          <mxGeometry x="-5" y="1170" width="290" height="40" as="geometry" />
        </mxCell>
        <mxCell id="i65pdLxmEgdxma1QW-8l-154" value="&lt;font style=&quot;font-size: 20px;&quot; color=&quot;#1f497d&quot;&gt;Needs: Checkout, Build&lt;/font&gt;" style="text;html=1;resizable=0;autosize=1;align=center;verticalAlign=middle;points=[];fillColor=none;strokeColor=none;rounded=0;dashed=1;fontSize=15;" vertex="1" parent="1">
          <mxGeometry x="25" y="680" width="230" height="40" as="geometry" />
        </mxCell>
        <mxCell id="i65pdLxmEgdxma1QW-8l-155" value="&lt;font style=&quot;font-size: 20px;&quot; color=&quot;#1f497d&quot;&gt;if: always&lt;/font&gt;" style="text;html=1;resizable=0;autosize=1;align=center;verticalAlign=middle;points=[];fillColor=none;strokeColor=none;rounded=0;dashed=1;fontSize=15;" vertex="1" parent="1">
          <mxGeometry x="85" y="1190" width="110" height="40" as="geometry" />
        </mxCell>
        <mxCell id="i65pdLxmEgdxma1QW-8l-162" style="edgeStyle=none;rounded=0;orthogonalLoop=1;jettySize=auto;html=1;exitX=0.75;exitY=0;exitDx=0;exitDy=0;dashed=1;strokeWidth=1;fontSize=24;endArrow=none;endFill=0;" edge="1" parent="1" source="i65pdLxmEgdxma1QW-8l-149" target="i65pdLxmEgdxma1QW-8l-149">
          <mxGeometry relative="1" as="geometry" />
        </mxCell>
        <mxCell id="i65pdLxmEgdxma1QW-8l-165" style="edgeStyle=none;rounded=0;orthogonalLoop=1;jettySize=auto;html=1;exitX=1;exitY=0;exitDx=0;exitDy=0;dashed=1;strokeWidth=1;fontSize=24;endArrow=none;endFill=0;" edge="1" parent="1" source="i65pdLxmEgdxma1QW-8l-151" target="i65pdLxmEgdxma1QW-8l-151">
          <mxGeometry relative="1" as="geometry" />
        </mxCell>
        <mxCell id="i65pdLxmEgdxma1QW-8l-171" style="edgeStyle=none;rounded=0;orthogonalLoop=1;jettySize=auto;html=1;exitX=0.5;exitY=1;exitDx=0;exitDy=0;strokeWidth=1;fontSize=24;endArrow=block;endFill=1;" edge="1" parent="1" source="i65pdLxmEgdxma1QW-8l-127" target="i65pdLxmEgdxma1QW-8l-127">
          <mxGeometry relative="1" as="geometry" />
        </mxCell>
        <mxCell id="i65pdLxmEgdxma1QW-8l-177" style="edgeStyle=none;rounded=0;orthogonalLoop=1;jettySize=auto;html=1;exitX=0;exitY=0.75;exitDx=0;exitDy=0;strokeWidth=1;fontSize=24;endArrow=block;endFill=1;" edge="1" parent="1">
          <mxGeometry relative="1" as="geometry">
            <mxPoint y="209" as="sourcePoint" />
            <mxPoint y="209" as="targetPoint" />
          </mxGeometry>
        </mxCell>
        <mxCell id="i65pdLxmEgdxma1QW-8l-182" value="" style="edgeStyle=none;orthogonalLoop=1;jettySize=auto;html=1;rounded=0;strokeWidth=1;fontSize=21;fontColor=#000000;endArrow=block;endFill=1;" edge="1" parent="1">
          <mxGeometry width="80" relative="1" as="geometry">
            <mxPoint x="139.60000000000002" y="210" as="sourcePoint" />
            <mxPoint x="139.60000000000002" y="240" as="targetPoint" />
            <Array as="points" />
          </mxGeometry>
        </mxCell>
        <mxCell id="i65pdLxmEgdxma1QW-8l-183" value="" style="edgeStyle=none;orthogonalLoop=1;jettySize=auto;html=1;rounded=0;strokeWidth=1;fontSize=21;fontColor=#000000;endArrow=block;endFill=1;" edge="1" parent="1">
          <mxGeometry width="80" relative="1" as="geometry">
            <mxPoint x="120" y="610" as="sourcePoint" />
            <mxPoint x="120" y="640" as="targetPoint" />
            <Array as="points" />
          </mxGeometry>
        </mxCell>
        <mxCell id="i65pdLxmEgdxma1QW-8l-184" value="" style="edgeStyle=none;orthogonalLoop=1;jettySize=auto;html=1;rounded=0;strokeWidth=1;fontSize=21;fontColor=#000000;endArrow=block;endFill=1;" edge="1" parent="1">
          <mxGeometry width="80" relative="1" as="geometry">
            <mxPoint x="139.60000000000002" y="1100" as="sourcePoint" />
            <mxPoint x="139.60000000000002" y="1130" as="targetPoint" />
            <Array as="points" />
          </mxGeometry>
        </mxCell>
      </root>
    </mxGraphModel>
  </diagram>
</mxfile>
